<?xml version="1.0" standalone="no"?>
<!DOCTYPE svg PUBLIC "-//W3C//DTD SVG 20010904//EN"
 "http://www.w3.org/TR/2001/REC-SVG-20010904/DTD/svg10.dtd">
<svg version="1.0" xmlns="http://www.w3.org/2000/svg"
 width="135.000000pt" height="85.000000pt" viewBox="0 0 135.000000 85.000000"
 preserveAspectRatio="xMidYMid meet">

<g transform="translate(0.000000,85.000000) scale(0.100000,-0.100000)"
fill="#000000" stroke="none">
<path d="M531 686 c-91 -91 -141 -148 -136 -156 5 -8 52 33 139 119 73 72 136
131 141 131 5 0 68 -59 141 -131 87 -87 134 -127 139 -119 5 8 -44 64 -136
156 l-144 144 -144 -144z"/>
<path d="M567 623 l-97 -98 0 -122 c0 -70 -4 -124 -10 -128 -5 -3 -10 -11 -10
-17 0 -7 4 -7 14 1 14 11 39 13 211 13 172 0 197 -2 211 -13 10 -8 14 -8 14
-1 0 6 -4 14 -10 17 -6 4 -10 58 -10 128 l0 122 -97 98 c-53 53 -102 97 -108
97 -6 0 -55 -44 -108 -97z m170 -120 c4 -9 1 -19 -5 -21 -8 -2 -8 -8 0 -22 9
-14 9 -22 -1 -34 -16 -19 -51 -21 -52 -3 0 10 -2 10 -6 0 -7 -18 -38 -16 -54
3 -10 12 -10 20 -1 34 8 14 8 20 0 22 -6 2 -9 12 -5 21 5 13 19 17 62 17 43 0
57 -4 62 -17z"/>
<path d="M206 473 c-46 -48 -83 -91 -80 -94 2 -4 38 29 81 72 42 43 84 79 92
79 16 0 125 -100 134 -123 4 -8 6 -7 6 4 1 16 -123 149 -139 149 -5 0 -47 -39
-94 -87z"/>
<path d="M976 493 c-36 -37 -66 -74 -65 -82 0 -11 2 -12 6 -4 9 23 118 123
134 123 8 0 50 -36 92 -79 43 -43 79 -76 81 -72 5 8 -161 181 -174 181 -5 0
-38 -30 -74 -67z"/>
<path d="M227 422 l-67 -68 0 -76 c0 -51 -4 -78 -12 -82 -7 -3 -2 -3 12 1 14
4 33 7 43 7 9 0 17 3 17 7 0 6 52 20 95 24 11 1 28 6 37 10 9 4 21 4 27 1 5
-4 12 -2 16 4 3 5 14 10 24 10 14 0 17 9 16 51 0 50 -2 53 -66 115 -36 35 -68
64 -70 64 -3 0 -35 -30 -72 -68z m103 -88 c0 -34 -1 -35 -32 -32 -28 2 -33 7
-33 28 0 36 3 40 36 40 27 0 29 -3 29 -36z"/>
<path d="M980 426 c-63 -62 -65 -65 -65 -115 -1 -42 2 -51 16 -51 10 0 20 -4
24 -10 3 -5 12 -7 20 -4 8 3 20 2 27 -2 6 -4 21 -8 32 -9 39 -3 96 -17 96 -24
0 -4 8 -7 18 -7 9 0 28 -3 42 -7 14 -4 19 -4 13 -1 -9 4 -13 31 -13 83 l0 77
-68 67 c-37 37 -70 67 -72 67 -3 0 -34 -29 -70 -64z m107 -88 c-2 -29 -6 -33
-35 -36 -31 -3 -32 -2 -32 32 0 34 2 36 35 36 33 0 35 -2 32 -32z"/>
<path d="M61 164 c0 -11 3 -14 6 -6 3 7 2 16 -1 19 -3 4 -6 -2 -5 -13z"/>
<path d="M940 171 c0 -6 4 -13 10 -16 6 -3 7 1 4 9 -7 18 -14 21 -14 7z"/>
<path d="M1281 164 c0 -11 3 -14 6 -6 3 7 2 16 -1 19 -3 4 -6 -2 -5 -13z"/>
</g>
</svg>
